<?xml version="1.0" encoding="utf-8"?>
<!-- Generator: Adobe Illustrator 17.0.0, SVG Export Plug-In . SVG Version: 6.00 Build 0)  -->
<!DOCTYPE svg PUBLIC "-//W3C//DTD SVG 1.1//EN" "http://www.w3.org/Graphics/SVG/1.1/DTD/svg11.dtd">
<svg version="1.1" id="图层_1" xmlns="http://www.w3.org/2000/svg" xmlns:xlink="http://www.w3.org/1999/xlink" x="0px" y="0px"
	 width="96px" height="96px" viewBox="0 0 96 96" enable-background="new 0 0 96 96" xml:space="preserve">
<g>
	<path fill="#BAE3F9" stroke="#898989" stroke-miterlimit="10" d="M72.284,29.5c-0.91,0-1.434-0.067-2.128,0.627
		c-0.695,0.695-0.655,1.19-0.655,2.101v34.009c0,1.135-0.82,2.684-1.686,3.55c-0.866,0.866-2.387,1.713-3.522,1.713H29.424
		c-1.202,0-2.018-0.873-2.935-1.79S25.5,67.176,25.5,65.973V32.331c0-0.937-0.744-1.459-1.459-2.173
		c-0.715-0.715-2.038-0.657-2.975-0.657h-4.769c-1.17,0-1.953,0.032-2.845,0.924c-0.893,0.893-0.952,1.648-0.952,2.818V87.5h70
		V33.244c0-1.17-0.833-1.926-1.726-2.819c-0.893-0.893-2.45-0.925-3.621-0.925H72.284z"/>
	<path fill="#DFF2FC" stroke="#898989" stroke-miterlimit="10" d="M69.5,71.22c0,0.883-0.724,2.181-1.397,2.855
		S66.159,75.5,65.276,75.5h-37.26c-0.842,0-1.297-0.736-1.939-1.378c-0.642-0.642-0.577-1.899-0.577-2.741V33.5h44V71.22z"/>
</g>
<path d="M7.151,58.175"/>
<path d="M45.028,2.355"/>
<g>
	<defs>
		<rect id="SVGID_7_" x="33.455" y="3.012" width="60" height="60"/>
	</defs>
	<clipPath id="SVGID_2_">
		<use xlink:href="#SVGID_7_"  overflow="visible"/>
	</clipPath>
	<path clip-path="url(#SVGID_2_)" d="M33.455,3.012"/>
	<path clip-path="url(#SVGID_2_)" fill="#FFEEA3" d="M61.955,61.137c-1.691,0-3.277-0.75-4.352-2.059l-0.07-0.086l-0.109-0.031
		c-6.485-2-10.844-7.906-10.844-14.699v-20.93c0-3.933,3.199-7.132,7.133-7.132h16.488c3.934,0,7.133,3.199,7.133,7.132v20.93
		c0,6.793-4.359,12.699-10.844,14.695l-0.109,0.032l-0.074,0.089C65.232,60.387,63.646,61.137,61.955,61.137z"/>
	<path opacity="0" clip-path="url(#SVGID_2_)" fill="none" stroke="#000000" stroke-width="0.75" d="M61.955,61.137
		c-1.691,0-3.277-0.75-4.352-2.059l-0.07-0.086l-0.109-0.031c-6.485-2-10.844-7.906-10.844-14.699v-20.93
		c0-3.933,3.199-7.132,7.133-7.132h16.488c3.934,0,7.133,3.199,7.133,7.132v20.93c0,6.793-4.359,12.699-10.844,14.695l-0.109,0.032
		l-0.074,0.089C65.232,60.387,63.646,61.137,61.955,61.137z"/>
	<path clip-path="url(#SVGID_2_)" fill="#BA9B48" d="M70.197,15.824H53.713c-4.149,0-7.508,3.36-7.508,7.504v20.934
		c0,7.082,4.676,13.074,11.109,15.055c1.102,1.34,2.77,2.195,4.641,2.195c1.871,0,3.539-0.855,4.641-2.199
		c6.433-1.981,11.109-7.969,11.109-15.051V23.328C77.705,19.184,74.346,15.824,70.197,15.824z M70.197,16.574
		c3.727,0,6.758,3.032,6.758,6.758v20.93c0,6.625-4.25,12.387-10.582,14.336l-0.215,0.066l-0.144,0.176
		c-1,1.223-2.481,1.922-4.059,1.922s-3.059-0.703-4.059-1.922l-0.144-0.176l-0.215-0.066c-6.332-1.949-10.582-7.711-10.582-14.336
		V23.328c0-3.726,3.031-6.757,6.758-6.757h16.484"/>
	<path opacity="0" clip-path="url(#SVGID_2_)" fill="none" stroke="#000000" d="M70.197,15.824H53.713
		c-4.149,0-7.508,3.36-7.508,7.504v20.934c0,7.082,4.676,13.074,11.109,15.055c1.102,1.34,2.77,2.195,4.641,2.195
		c1.871,0,3.539-0.855,4.641-2.199c6.433-1.981,11.109-7.969,11.109-15.051V23.328C77.705,19.184,74.346,15.824,70.197,15.824z
		 M70.197,16.574c3.727,0,6.758,3.032,6.758,6.758v20.93c0,6.625-4.25,12.387-10.582,14.336l-0.215,0.066l-0.144,0.176
		c-1,1.223-2.481,1.922-4.059,1.922s-3.059-0.703-4.059-1.922l-0.144-0.176l-0.215-0.066c-6.332-1.949-10.582-7.711-10.582-14.336
		V23.328c0-3.726,3.031-6.757,6.758-6.757h16.484"/>
	<path clip-path="url(#SVGID_2_)" fill="#FFC49C" stroke="#898989" stroke-miterlimit="10" d="M79.955,59.637
		c-4.727,0-9.035-1.352-10.621-1.918c1.933-1.465,7.996-6.684,7.996-14.531V32.832c0-5.449-5.934-8.996-6.184-9.144l-0.336-0.196
		l-0.183,0.344c-0.039,0.074-4.117,7.395-14.348,8.809c-4.672,0.64-9.699,3.945-9.699,9.672v0.871
		c0,7.957,6.664,13.363,8.859,14.929c-1.761,0.465-6.187,1.52-9.984,1.52c-6.348,0-9.336-3.242-10.027-4.113
		c0.937-1.176,4.992-6.477,4.992-10.297c0-1.973-0.461-4.274-0.949-6.707c-0.563-2.793-1.141-5.68-1.141-8.508
		c0-15.727,11.223-25.125,22.07-25.125c8.203,0,11.696,5.758,11.731,5.816l0.109,0.184h0.215c7.062,0,14.625,7.082,14.625,17.625
		c0,3.363-0.734,6.453-1.441,9.441c-0.61,2.571-1.184,4.997-1.184,7.274c0,4.828,5.312,9.137,6.871,10.297
		C89.986,56.516,85.342,59.637,79.955,59.637z"/>
	<path opacity="0" clip-path="url(#SVGID_2_)" fill="none" stroke="#000000" stroke-width="0.75" d="M79.955,59.637
		c-4.727,0-9.035-1.352-10.621-1.918c1.933-1.465,7.996-6.684,7.996-14.531V32.832c0-5.449-5.934-8.996-6.184-9.144l-0.336-0.196
		l-0.183,0.344c-0.039,0.074-4.117,7.395-14.348,8.809c-4.672,0.64-9.699,3.945-9.699,9.672v0.871
		c0,7.957,6.664,13.363,8.859,14.929c-1.761,0.465-6.187,1.52-9.984,1.52c-6.348,0-9.336-3.242-10.027-4.113
		c0.937-1.176,4.992-6.477,4.992-10.297c0-1.973-0.461-4.274-0.949-6.707c-0.563-2.793-1.141-5.68-1.141-8.508
		c0-15.727,11.223-25.125,22.07-25.125c8.203,0,11.696,5.758,11.731,5.816l0.109,0.184h0.215c7.062,0,14.625,7.082,14.625,17.625
		c0,3.363-0.734,6.453-1.441,9.441c-0.61,2.571-1.184,4.997-1.184,7.274c0,4.828,5.312,9.137,6.871,10.297
		C89.986,56.516,85.342,59.637,79.955,59.637z"/>
	<path clip-path="url(#SVGID_2_)" fill="#A16A4A" d="M60.4,4.512c-11.148,0-22.445,9.707-22.445,25.5
		c0,5.379,2.09,11.07,2.09,15.215c0,4.14-5.09,10.285-5.09,10.285s2.887,4.5,10.5,4.5c4.957,0,10.867-1.746,10.867-1.746
		s-9.367-5.703-9.367-15.074c0-0.664,0-0.785,0-0.785v0.035c0,0,0-0.028,0-0.125c0-5.516,4.863-8.68,9.375-9.305
		c10.559-1.457,14.625-9,14.625-9s6,3.523,6,8.82c0,2.289,0,6.594,0,10.356c0,9.195-8.41,14.636-8.41,14.636
		s5.328,2.188,11.41,2.188c6.59,0,12-4.5,12-4.5s-7.125-4.883-7.125-10.285c0-4.801,2.625-10.352,2.625-16.715
		c0-10.793-7.91-18-15-18C72.455,10.512,68.935,4.512,60.4,4.512z M60.4,5.262c3.344,0,6.274,0.941,8.715,2.805
		c1.828,1.394,2.684,2.812,2.692,2.828l0.218,0.371h0.43c3.336,0,6.926,1.758,9.605,4.707c2.997,3.293,4.645,7.746,4.645,12.539
		c0,3.316-0.727,6.387-1.43,9.355c-0.613,2.594-1.195,5.04-1.195,7.36c0,4.633,4.668,8.762,6.617,10.285
		c-1.68,1.18-5.906,3.75-10.742,3.75c-4.117,0-7.918-1.043-9.832-1.668c2.391-1.918,7.582-6.937,7.582-14.402v-10.36
		c0-5.66-6.109-9.316-6.371-9.468l-0.668-0.391l-0.371,0.68c-0.008,0.019-1.012,1.832-3.242,3.793
		c-2.051,1.8-5.59,4.097-10.828,4.82c-4.825,0.668-10.02,4.098-10.02,10.051v0.09v0.785c0,7.547,5.672,12.734,8.359,14.765
		c-2.058,0.508-5.824,1.305-9.109,1.305c-5.797,0-8.648-2.684-9.551-3.738c1.211-1.551,4.887-6.571,4.887-10.297
		c0-2.012-0.465-4.328-0.957-6.781c-0.555-2.774-1.129-5.645-1.129-8.434C38.705,14.52,49.736,5.262,60.4,5.262"/>
	<path opacity="0" clip-path="url(#SVGID_2_)" fill="none" stroke="#000000" stroke-width="0.75" d="M60.4,4.512
		c-11.148,0-22.445,9.707-22.445,25.5c0,5.379,2.09,11.07,2.09,15.215c0,4.14-5.09,10.285-5.09,10.285s2.887,4.5,10.5,4.5
		c4.957,0,10.867-1.746,10.867-1.746s-9.367-5.703-9.367-15.074c0-0.664,0-0.785,0-0.785v0.035c0,0,0-0.028,0-0.125
		c0-5.516,4.863-8.68,9.375-9.305c10.559-1.457,14.625-9,14.625-9s6,3.523,6,8.82c0,2.289,0,6.594,0,10.356
		c0,9.195-8.41,14.636-8.41,14.636s5.328,2.188,11.41,2.188c6.59,0,12-4.5,12-4.5s-7.125-4.883-7.125-10.285
		c0-4.801,2.625-10.352,2.625-16.715c0-10.793-7.91-18-15-18C72.455,10.512,68.935,4.512,60.4,4.512z M60.4,5.262
		c3.344,0,6.274,0.941,8.715,2.805c1.828,1.394,2.684,2.812,2.692,2.828l0.218,0.371h0.43c3.336,0,6.926,1.758,9.605,4.707
		c2.997,3.293,4.645,7.746,4.645,12.539c0,3.316-0.727,6.387-1.43,9.355c-0.613,2.594-1.195,5.04-1.195,7.36
		c0,4.633,4.668,8.762,6.617,10.285c-1.68,1.18-5.906,3.75-10.742,3.75c-4.117,0-7.918-1.043-9.832-1.668
		c2.391-1.918,7.582-6.937,7.582-14.402v-10.36c0-5.66-6.109-9.316-6.371-9.468l-0.668-0.391l-0.371,0.68
		c-0.008,0.019-1.012,1.832-3.242,3.793c-2.051,1.8-5.59,4.097-10.828,4.82c-4.825,0.668-10.02,4.098-10.02,10.051v0.09v0.785
		c0,7.547,5.672,12.734,8.359,14.765c-2.058,0.508-5.824,1.305-9.109,1.305c-5.797,0-8.648-2.684-9.551-3.738
		c1.211-1.551,4.887-6.571,4.887-10.297c0-2.012-0.465-4.328-0.957-6.781c-0.555-2.774-1.129-5.645-1.129-8.434
		C38.705,14.52,49.736,5.262,60.4,5.262"/>
	<path opacity="0" clip-path="url(#SVGID_2_)" fill="none" stroke="#000000" stroke-width="0.75" d="M71.705,40.887
		c0,2.5-3.75,2.5-3.75,0S71.705,38.387,71.705,40.887"/>
	<path opacity="0" clip-path="url(#SVGID_2_)" fill="none" stroke="#000000" stroke-width="0.75" d="M55.955,40.887
		c0,2.5-3.75,2.5-3.75,0S55.955,38.387,55.955,40.887"/>
</g>
</svg>
