<?xml version="1.0" encoding="utf-8"?>
<!-- Generator: Adobe Illustrator 17.0.0, SVG Export Plug-In . SVG Version: 6.00 Build 0)  -->
<!DOCTYPE svg PUBLIC "-//W3C//DTD SVG 1.1//EN" "http://www.w3.org/Graphics/SVG/1.1/DTD/svg11.dtd">
<svg version="1.1" id="图层_1" xmlns="http://www.w3.org/2000/svg" xmlns:xlink="http://www.w3.org/1999/xlink" x="0px" y="0px"
	 width="96px" height="96px" viewBox="0 0 96 96" enable-background="new 0 0 96 96" xml:space="preserve">
<path fill="#BAE3F9" stroke="#898989" stroke-miterlimit="10" d="M73.84,30.188c-0.91,0-1.962,0.131-2.657,0.825
	C70.489,31.707,70,32.401,70,33.312V67.32c0,1.135-0.292,2.486-1.157,3.352s-1.859,1.515-2.994,1.515H30.98
	c-1.202,0-2.546-0.675-3.463-1.592C26.6,69.678,26,68.259,26,67.057V33.414c0-0.937-0.216-1.657-0.931-2.371
	c-0.715-0.715-1.51-0.855-2.447-0.855h-4.769c-1.17,0-2.481,0.23-3.374,1.122C13.588,32.202,13,33.156,13,34.326v53.862h70v-53.86
	c0-1.17-0.305-2.124-1.198-3.017c-0.893-0.893-1.922-1.123-3.092-1.123H73.84z"/>
<path fill="#DFF2FC" stroke="#898989" stroke-miterlimit="10" d="M70,72.304c0,0.883-0.196,1.983-0.869,2.656
	c-0.674,0.674-1.416,1.227-2.299,1.227h-37.26c-0.842,0-1.825-0.538-2.467-1.18C26.463,74.365,26,73.307,26,72.465V34.188h44V72.304
	z"/>
<path fill="#FFFFFF" stroke="#898989" stroke-miterlimit="10" d="M83,87.263L65.382,72.188H30.98c-1.202,0-2.546-0.675-3.463-1.592
	C26.6,69.678,26,68.259,26,67.057V37.88l-9.142-8.043c-0.871,0.165-1.774,0.583-2.448,1.257C13.517,31.986,13,33.156,13,34.326
	v53.862h70V87.263z"/>
<path fill="#FFFFFF" stroke="#898989" stroke-miterlimit="10" d="M29.572,76.188h37.26c0.791,0,1.432-0.502,2.073-1.042L26,37.88
	v34.585c0,0.842,0.463,1.9,1.105,2.543C27.747,75.65,28.73,76.188,29.572,76.188z"/>
<g>
	<path fill="#E8D47B" d="M80.761,44.97c-2.688,0-4.875-2.187-4.875-4.875s2.187-4.875,4.875-4.875c3.461,0,4.875,0.906,4.875,3.125
		C85.636,40.962,83.452,44.97,80.761,44.97z"/>
	<path opacity="0" fill="none" stroke="#000000" d="M80.761,44.97c-2.688,0-4.875-2.187-4.875-4.875s2.187-4.875,4.875-4.875
		c3.461,0,4.875,0.906,4.875,3.125C85.636,40.962,83.452,44.97,80.761,44.97z"/>
	<path fill="#BA9B48" d="M80.761,34.845c-2.898,0-5.25,2.352-5.25,5.25c0,2.898,2.352,5.25,5.25,5.25c2.898,0,5.25-4.102,5.25-7
		C86.011,35.447,83.659,34.845,80.761,34.845z M80.761,35.595c3.734,0,4.5,1.098,4.5,2.75c0,3.219-2.535,6.25-4.5,6.25
		c-2.48,0-4.5-2.02-4.5-4.5S78.281,35.595,80.761,35.595"/>
	<path opacity="0" fill="none" stroke="#000000" d="M80.761,34.845c-2.898,0-5.25,2.352-5.25,5.25s2.352,5.25,5.25,5.25
		c2.898,0,5.25-4.102,5.25-7C86.011,35.447,83.659,34.845,80.761,34.845z M80.761,35.595c3.734,0,4.5,1.098,4.5,2.75
		c0,3.219-2.535,6.25-4.5,6.25c-2.48,0-4.5-2.02-4.5-4.5S78.281,35.595,80.761,35.595"/>
	<path fill="#E8D47B" d="M49.261,44.97c-2.691,0-4.875-4.008-4.875-6.625c0-2.219,1.414-3.125,4.875-3.125
		c2.688,0,4.875,2.187,4.875,4.875S51.949,44.97,49.261,44.97z"/>
	<path opacity="0" fill="none" stroke="#000000" d="M49.261,44.97c-2.691,0-4.875-4.008-4.875-6.625
		c0-2.219,1.414-3.125,4.875-3.125c2.688,0,4.875,2.187,4.875,4.875S51.949,44.97,49.261,44.97z"/>
	<path fill="#BA9B48" d="M49.261,34.845c-2.898,0-5.25,0.602-5.25,3.5c0,2.898,2.352,7,5.25,7c2.898,0,5.25-2.352,5.25-5.25
		C54.511,37.197,52.159,34.845,49.261,34.845z M49.261,35.595c2.48,0,4.5,2.02,4.5,4.5s-2.02,4.5-4.5,4.5
		c-1.965,0-4.5-3.031-4.5-6.25C44.761,36.693,45.527,35.595,49.261,35.595"/>
	<path opacity="0" fill="none" stroke="#000000" d="M49.261,34.845c-2.898,0-5.25,0.602-5.25,3.5c0,2.898,2.352,7,5.25,7
		c2.898,0,5.25-2.352,5.25-5.25S52.159,34.845,49.261,34.845z M49.261,35.595c2.48,0,4.5,2.02,4.5,4.5s-2.02,4.5-4.5,4.5
		c-1.965,0-4.5-3.031-4.5-6.25C44.761,36.693,45.527,35.595,49.261,35.595"/>
	<path fill="#FFEEA3" d="M65.011,62.22c-1.672,0-3.246-0.738-4.316-2.023l-0.075-0.086l-0.109-0.032
		c-6.844-1.988-11.625-8.355-11.625-15.484v-21.93c0-4.129,3.359-7.488,7.488-7.488h17.274c4.129,0,7.488,3.359,7.488,7.488v21.93
		c0,7.129-4.781,13.496-11.625,15.484l-0.109,0.032l-0.075,0.086C68.257,61.482,66.683,62.22,65.011,62.22z"/>
	<path opacity="0" fill="none" stroke="#000000" d="M65.011,62.22c-1.672,0-3.246-0.738-4.316-2.023l-0.075-0.086l-0.109-0.032
		c-6.844-1.988-11.625-8.355-11.625-15.484v-21.93c0-4.129,3.359-7.488,7.488-7.488h17.274c4.129,0,7.488,3.359,7.488,7.488v21.93
		c0,7.129-4.781,13.496-11.625,15.484l-0.109,0.032l-0.075,0.086C68.257,61.482,66.683,62.22,65.011,62.22z"/>
	<path fill="#BA9B48" d="M73.648,14.802H56.374c-4.343,0-7.863,3.52-7.863,7.863v21.93c0,7.512,5.023,13.848,11.895,15.844
		c1.101,1.316,2.753,2.156,4.605,2.156s3.504-0.84,4.605-2.156c6.872-1.996,11.895-8.332,11.895-15.844v-21.93
		C81.511,18.322,77.991,14.802,73.648,14.802z M73.648,15.552c3.922,0,7.113,3.191,7.113,7.113v21.93
		c0,6.965-4.668,13.184-11.352,15.121l-0.218,0.063l-0.149,0.175c-1.004,1.203-2.472,1.891-4.031,1.891s-3.027-0.688-4.031-1.887
		l-0.149-0.175l-0.218-0.063c-6.684-1.941-11.352-8.16-11.352-15.125v-21.93c0-3.922,3.191-7.113,7.113-7.113H73.648"/>
	<path opacity="0" fill="none" stroke="#000000" d="M73.648,14.802H56.374c-4.343,0-7.863,3.52-7.863,7.863v21.93
		c0,7.512,5.023,13.848,11.895,15.844c1.101,1.316,2.753,2.156,4.605,2.156s3.504-0.84,4.605-2.156
		c6.872-1.996,11.895-8.332,11.895-15.844v-21.93C81.511,18.322,77.991,14.802,73.648,14.802z M73.648,15.552
		c3.922,0,7.113,3.191,7.113,7.113v21.93c0,6.965-4.668,13.184-11.352,15.121l-0.218,0.063l-0.149,0.175
		c-1.004,1.203-2.472,1.891-4.031,1.891s-3.027-0.688-4.031-1.887l-0.149-0.175l-0.218-0.063
		c-6.684-1.941-11.352-8.16-11.352-15.125v-21.93c0-3.922,3.191-7.113,7.113-7.113H73.648"/>
	<path fill="#B0C1D4" d="M81.136,41.97V31.56c0-8.25-6.941-10.551-7.012-10.57l-0.234-0.075l-0.16,0.188
		c-0.051,0.058-5.157,5.867-14.824,5.867c-3.012,0-10.02,0.828-10.02,8.5v6.5h-0.117c-0.641-1.668-4.383-11.754-4.383-18.566
		c0-4.336,1.809-8.664,4.961-11.875c2.488-2.536,6.969-5.559,14.164-5.559c6.27,0,9.59,3.152,11.008,5.035l0.113,0.149h0.188
		c2.804,0,10.816,2.347,10.816,12.781c0,5.355-3.762,16.254-4.391,18.035H81.136z"/>
	<path opacity="0" fill="none" stroke="#000000" d="M81.136,41.97V31.56c0-8.25-6.941-10.551-7.012-10.57l-0.234-0.075l-0.16,0.188
		c-0.051,0.058-5.157,5.867-14.824,5.867c-3.012,0-10.02,0.828-10.02,8.5v6.5h-0.117c-0.641-1.668-4.383-11.754-4.383-18.566
		c0-4.336,1.809-8.664,4.961-11.875c2.488-2.536,6.969-5.559,14.164-5.559c6.27,0,9.59,3.152,11.008,5.035l0.113,0.149h0.188
		c2.804,0,10.816,2.347,10.816,12.781c0,5.355-3.762,16.254-4.391,18.035H81.136z"/>
	<path fill="#66798F" d="M63.511,5.595c-12.492,0-19.5,9.195-19.5,17.809c0,7.566,4.5,18.941,4.5,18.941h0.75c0,0,0-4.793,0-6.871
		c0-6.399,5.086-8.129,9.645-8.129c9.968,0,15.105-6,15.105-6s6.75,2.145,6.75,10.215c0,2.289,0,10.785,0,10.785h0.75
		c0,0,4.5-12.461,4.5-18.41c0-10.477-8.035-13.156-11.191-13.156C74.023,9.724,70.702,5.595,63.511,5.595z M63.511,6.345
		c6.105,0,9.332,3.059,10.711,4.883l0.227,0.297h0.374c2.704,0.004,10.438,2.281,10.438,12.41c0,4.32-2.492,12.34-3.75,16.105v-8.48
		c0-4.442-1.969-7.176-3.617-8.688c-1.789-1.636-3.578-2.218-3.653-2.242l-0.472-0.148l-0.324,0.375
		c-0.051,0.054-5.063,5.738-14.539,5.738c-6.606,0-10.395,3.234-10.395,8.875v4.711c-1.25-3.524-3.75-11.25-3.75-16.777
		c0-4.239,1.77-8.469,4.852-11.61C52.054,9.31,56.445,6.345,63.511,6.345"/>
	<path opacity="0" fill="none" stroke="#000000" d="M63.511,5.595c-12.492,0-19.5,9.195-19.5,17.809c0,7.566,4.5,18.941,4.5,18.941
		h0.75c0,0,0-4.793,0-6.871c0-6.399,5.086-8.129,9.645-8.129c9.968,0,15.105-6,15.105-6s6.75,2.145,6.75,10.215
		c0,2.289,0,10.785,0,10.785h0.75c0,0,4.5-12.461,4.5-18.41c0-10.477-8.035-13.156-11.191-13.156
		C74.023,9.724,70.702,5.595,63.511,5.595z M63.511,6.345c6.105,0,9.332,3.059,10.711,4.883l0.227,0.297h0.374
		c2.704,0.004,10.438,2.281,10.438,12.41c0,4.32-2.492,12.34-3.75,16.105v-8.48c0-4.442-1.969-7.176-3.617-8.688
		c-1.789-1.636-3.578-2.218-3.653-2.242l-0.472-0.148l-0.324,0.375c-0.051,0.054-5.063,5.738-14.539,5.738
		c-6.606,0-10.395,3.234-10.395,8.875v4.711c-1.25-3.524-3.75-11.25-3.75-16.777c0-4.239,1.77-8.469,4.852-11.61
		C52.054,9.31,56.445,6.345,63.511,6.345"/>
	<path opacity="0" fill="none" stroke="#000000" d="M74.761,41.22c0,2.5-3.75,2.5-3.75,0S74.761,38.72,74.761,41.22"/>
	<path opacity="0" fill="none" stroke="#000000" d="M59.011,41.22c0,2.5-3.75,2.5-3.75,0S59.011,38.72,59.011,41.22"/>
</g>
<path d="M8.707,59.259"/>
<g>
	<path fill="#F78F8F" d="M24.043,91.069c-8.589,0-15.574-6.985-15.574-15.574s6.985-15.574,15.574-15.574
		s15.574,6.985,15.574,15.574S32.632,91.069,24.043,91.069z"/>
	<path opacity="0" fill="none" stroke="#000000" stroke-width="0.8418" d="M24.043,91.069c-8.589,0-15.574-6.985-15.574-15.574
		s6.985-15.574,15.574-15.574s15.574,6.985,15.574,15.574S32.632,91.069,24.043,91.069z"/>
	<path fill="#C74343" d="M24.043,59.5c-8.835,0-15.995,7.16-15.995,15.995s7.16,15.995,15.995,15.995s15.995-7.16,15.995-15.995
		S32.878,59.5,24.043,59.5z M24.043,60.342c8.357,0,15.153,6.796,15.153,15.153s-6.796,15.153-15.153,15.153
		S8.89,83.852,8.89,75.495S15.686,60.342,24.043,60.342"/>
	<path opacity="0" fill="none" stroke="#000000" stroke-width="0.8418" d="M24.043,59.5c-8.835,0-15.995,7.16-15.995,15.995
		s7.16,15.995,15.995,15.995s15.995-7.16,15.995-15.995S32.878,59.5,24.043,59.5z M24.043,60.342
		c8.357,0,15.153,6.796,15.153,15.153s-6.796,15.153-15.153,15.153S8.89,83.852,8.89,75.495S15.686,60.342,24.043,60.342"/>
	<path fill="#FFFFFF" d="M26.568,75.495h2.526v-7.997c0-0.697-0.566-1.263-1.263-1.263s-1.263,0.566-1.263,1.263V75.495z"/>
	<path opacity="0" fill="none" stroke="#000000" stroke-width="0.8418" d="M26.568,75.495h2.526v-7.997
		c0-0.697-0.566-1.263-1.263-1.263s-1.263,0.566-1.263,1.263V75.495z"/>
	<path fill="#FFFFFF" d="M19.834,75.495h2.526v-9.681c0-0.697-0.566-1.263-1.263-1.263s-1.263,0.566-1.263,1.263V75.495z"/>
	<path opacity="0" fill="none" stroke="#000000" stroke-width="0.8418" d="M19.834,75.495h2.526v-9.681
		c0-0.697-0.566-1.263-1.263-1.263s-1.263,0.566-1.263,1.263V75.495z"/>
	<path fill="#FFFFFF" d="M16.466,78.021h2.526v-8.839c0-0.697-0.566-1.263-1.263-1.263s-1.263,0.566-1.263,1.263V78.021z"/>
	<path opacity="0" fill="none" stroke="#000000" stroke-width="0.8418" d="M16.466,78.021h2.526v-8.839
		c0-0.697-0.566-1.263-1.263-1.263s-1.263,0.566-1.263,1.263V78.021z"/>
	<path fill="#FFFFFF" d="M23.201,75.495h2.526V64.972c0-0.697-0.566-1.263-1.263-1.263s-1.263,0.566-1.263,1.263V75.495z"/>
	<path opacity="0" fill="none" stroke="#000000" stroke-width="0.8418" d="M23.201,75.495h2.526V64.972
		c0-0.697-0.566-1.263-1.263-1.263s-1.263,0.566-1.263,1.263V75.495z"/>
	<path fill="#FFFFFF" d="M25.349,81.866l2.424,2.424l5.867-5.867c0.67-0.67,0.67-1.753,0-2.424c-0.671-0.67-1.754-0.67-2.424,0
		L25.349,81.866z"/>
	<path opacity="0" fill="none" stroke="#000000" stroke-width="0.8418" d="M25.349,81.866l2.424,2.424l5.867-5.867
		c0.67-0.67,0.67-1.753,0-2.424c-0.671-0.67-1.754-0.67-2.424,0L25.349,81.866z"/>
	<path fill="#FFFFFF" d="M24.613,85.597h-3.938c-2.323,0-4.209-1.886-4.209-4.209v-7.577h12.628v7.305
		C29.094,83.589,27.086,85.597,24.613,85.597z"/>
	<path opacity="0" fill="none" stroke="#000000" stroke-width="0.8418" d="M24.613,85.597h-3.938c-2.323,0-4.209-1.886-4.209-4.209
		v-7.577h12.628v7.305C29.094,83.589,27.086,85.597,24.613,85.597z"/>
</g>
</svg>
