<?xml version="1.0" encoding="utf-8"?>
<!-- Generator: Adobe Illustrator 17.0.0, SVG Export Plug-In . SVG Version: 6.00 Build 0)  -->
<!DOCTYPE svg PUBLIC "-//W3C//DTD SVG 1.1//EN" "http://www.w3.org/Graphics/SVG/1.1/DTD/svg11.dtd">
<svg version="1.1" id="图层_1" xmlns="http://www.w3.org/2000/svg" xmlns:xlink="http://www.w3.org/1999/xlink" x="0px" y="0px"
	 width="96px" height="96px" viewBox="0 0 96 96" enable-background="new 0 0 96 96" xml:space="preserve">
<g>
	<path fill="#BAE3F9" stroke="#898989" stroke-miterlimit="10" d="M72.996,29.5c-0.91,0-1.79,0.199-2.485,0.894
		c-0.695,0.695-1.011,1.457-1.011,2.367V66.77c0,1.135-0.463,2.418-1.329,3.283S66.14,71.5,65.005,71.5H30.137
		c-1.202,0-2.374-0.607-3.291-1.524c-0.917-0.917-1.345-2.267-1.345-3.47V32.864c0-0.937-0.388-1.725-1.102-2.44
		c-0.715-0.715-1.682-0.924-2.618-0.924H17.01c-1.17,0-2.309,0.298-3.202,1.191S12.5,32.605,12.5,33.775V87.5h70V33.777
		c0-1.17-0.477-2.193-1.37-3.086c-0.893-0.893-2.094-1.192-3.264-1.192H72.996z"/>
	<path fill="#DFF2FC" stroke="#898989" stroke-miterlimit="10" d="M69.5,71.753c0,0.883-0.367,1.914-1.041,2.588
		s-1.587,1.159-2.47,1.159h-37.26c-0.842,0-1.653-0.469-2.296-1.111c-0.642-0.642-0.933-1.632-0.933-2.474V33.5h44V71.753z"/>
</g>
<g>
	<path fill="#E8D47B" d="M80.292,44.283c-2.688,0-4.875-2.187-4.875-4.875s2.187-4.875,4.875-4.875c3.461,0,4.875,0.906,4.875,3.125
		C85.167,40.275,82.983,44.283,80.292,44.283z"/>
	<path opacity="0" fill="none" stroke="#000000" d="M80.292,44.283c-2.688,0-4.875-2.187-4.875-4.875s2.187-4.875,4.875-4.875
		c3.461,0,4.875,0.906,4.875,3.125C85.167,40.275,82.983,44.283,80.292,44.283z"/>
	<path fill="#BA9B48" d="M80.292,34.158c-2.898,0-5.25,2.352-5.25,5.25c0,2.898,2.352,5.25,5.25,5.25c2.898,0,5.25-4.102,5.25-7
		C85.542,34.76,83.19,34.158,80.292,34.158z M80.292,34.908c3.734,0,4.5,1.098,4.5,2.75c0,3.219-2.535,6.25-4.5,6.25
		c-2.48,0-4.5-2.02-4.5-4.5S77.812,34.908,80.292,34.908"/>
	<path opacity="0" fill="none" stroke="#000000" d="M80.292,34.158c-2.898,0-5.25,2.352-5.25,5.25s2.352,5.25,5.25,5.25
		c2.898,0,5.25-4.102,5.25-7C85.542,34.76,83.19,34.158,80.292,34.158z M80.292,34.908c3.734,0,4.5,1.098,4.5,2.75
		c0,3.219-2.535,6.25-4.5,6.25c-2.48,0-4.5-2.02-4.5-4.5S77.812,34.908,80.292,34.908"/>
	<path fill="#E8D47B" d="M48.792,44.283c-2.691,0-4.875-4.008-4.875-6.625c0-2.219,1.414-3.125,4.875-3.125
		c2.688,0,4.875,2.187,4.875,4.875S51.48,44.283,48.792,44.283z"/>
	<path opacity="0" fill="none" stroke="#000000" d="M48.792,44.283c-2.691,0-4.875-4.008-4.875-6.625
		c0-2.219,1.414-3.125,4.875-3.125c2.688,0,4.875,2.187,4.875,4.875S51.48,44.283,48.792,44.283z"/>
	<path fill="#BA9B48" d="M48.792,34.158c-2.898,0-5.25,0.602-5.25,3.5c0,2.898,2.352,7,5.25,7c2.898,0,5.25-2.352,5.25-5.25
		C54.042,36.51,51.69,34.158,48.792,34.158z M48.792,34.908c2.48,0,4.5,2.02,4.5,4.5s-2.02,4.5-4.5,4.5c-1.965,0-4.5-3.031-4.5-6.25
		C44.292,36.006,45.058,34.908,48.792,34.908"/>
	<path opacity="0" fill="none" stroke="#000000" d="M48.792,34.158c-2.898,0-5.25,0.602-5.25,3.5c0,2.898,2.352,7,5.25,7
		c2.898,0,5.25-2.352,5.25-5.25S51.69,34.158,48.792,34.158z M48.792,34.908c2.48,0,4.5,2.02,4.5,4.5s-2.02,4.5-4.5,4.5
		c-1.965,0-4.5-3.031-4.5-6.25C44.292,36.006,45.058,34.908,48.792,34.908"/>
	<path fill="#FFEEA3" d="M64.542,61.533c-1.672,0-3.246-0.738-4.316-2.023l-0.075-0.086l-0.109-0.032
		c-6.844-1.988-11.625-8.355-11.625-15.484v-21.93c0-4.129,3.359-7.488,7.488-7.488h17.274c4.129,0,7.488,3.359,7.488,7.488v21.93
		c0,7.129-4.781,13.496-11.625,15.484l-0.109,0.032l-0.075,0.086C67.788,60.795,66.214,61.533,64.542,61.533z"/>
	<path opacity="0" fill="none" stroke="#000000" d="M64.542,61.533c-1.672,0-3.246-0.738-4.316-2.023l-0.075-0.086l-0.109-0.032
		c-6.844-1.988-11.625-8.355-11.625-15.484v-21.93c0-4.129,3.359-7.488,7.488-7.488h17.274c4.129,0,7.488,3.359,7.488,7.488v21.93
		c0,7.129-4.781,13.496-11.625,15.484l-0.109,0.032l-0.075,0.086C67.788,60.795,66.214,61.533,64.542,61.533z"/>
	<path fill="#BA9B48" d="M73.179,14.115H55.905c-4.343,0-7.863,3.52-7.863,7.863v21.93c0,7.512,5.023,13.848,11.895,15.844
		c1.101,1.316,2.753,2.156,4.605,2.156c1.852,0,3.504-0.84,4.605-2.156c6.872-1.996,11.895-8.332,11.895-15.844v-21.93
		C81.042,17.635,77.522,14.115,73.179,14.115z M73.179,14.865c3.922,0,7.113,3.191,7.113,7.113v21.93
		c0,6.965-4.668,13.184-11.352,15.121l-0.218,0.063l-0.149,0.175c-1.004,1.203-2.472,1.891-4.031,1.891
		c-1.559,0-3.027-0.688-4.031-1.887l-0.149-0.175l-0.218-0.063c-6.684-1.941-11.352-8.16-11.352-15.125v-21.93
		c0-3.922,3.191-7.113,7.113-7.113H73.179"/>
	<path opacity="0" fill="none" stroke="#000000" d="M73.179,14.115H55.905c-4.343,0-7.863,3.52-7.863,7.863v21.93
		c0,7.512,5.023,13.848,11.895,15.844c1.101,1.316,2.753,2.156,4.605,2.156c1.852,0,3.504-0.84,4.605-2.156
		c6.872-1.996,11.895-8.332,11.895-15.844v-21.93C81.042,17.635,77.522,14.115,73.179,14.115z M73.179,14.865
		c3.922,0,7.113,3.191,7.113,7.113v21.93c0,6.965-4.668,13.184-11.352,15.121l-0.218,0.063l-0.149,0.175
		c-1.004,1.203-2.472,1.891-4.031,1.891c-1.559,0-3.027-0.688-4.031-1.887l-0.149-0.175l-0.218-0.063
		c-6.684-1.941-11.352-8.16-11.352-15.125v-21.93c0-3.922,3.191-7.113,7.113-7.113H73.179"/>
	<path fill="#B0C1D4" d="M80.667,41.283v-10.41c0-8.25-6.941-10.551-7.012-10.57l-0.234-0.075l-0.16,0.188
		c-0.051,0.058-5.157,5.867-14.824,5.867c-3.012,0-10.02,0.828-10.02,8.5v6.5H48.3c-0.641-1.668-4.383-11.754-4.383-18.566
		c0-4.336,1.809-8.664,4.961-11.875c2.488-2.536,6.969-5.559,14.164-5.559c6.27,0,9.59,3.152,11.008,5.035l0.113,0.149h0.188
		c2.804,0,10.816,2.347,10.816,12.781c0,5.355-3.762,16.254-4.391,18.035H80.667z"/>
	<path opacity="0" fill="none" stroke="#000000" d="M80.667,41.283v-10.41c0-8.25-6.941-10.551-7.012-10.57l-0.234-0.075
		l-0.16,0.188c-0.051,0.058-5.157,5.867-14.824,5.867c-3.012,0-10.02,0.828-10.02,8.5v6.5H48.3
		c-0.641-1.668-4.383-11.754-4.383-18.566c0-4.336,1.809-8.664,4.961-11.875c2.488-2.536,6.969-5.559,14.164-5.559
		c6.27,0,9.59,3.152,11.008,5.035l0.113,0.149h0.188c2.804,0,10.816,2.347,10.816,12.781c0,5.355-3.762,16.254-4.391,18.035H80.667z
		"/>
	<path fill="#66798F" d="M63.042,4.908c-12.492,0-19.5,9.195-19.5,17.809c0,7.566,4.5,18.941,4.5,18.941h0.75c0,0,0-4.793,0-6.871
		c0-6.399,5.086-8.129,9.645-8.129c9.968,0,15.105-6,15.105-6s6.75,2.145,6.75,10.215c0,2.289,0,10.785,0,10.785h0.75
		c0,0,4.5-12.461,4.5-18.41c0-10.477-8.035-13.156-11.191-13.156C73.554,9.037,70.233,4.908,63.042,4.908z M63.042,5.658
		c6.105,0,9.332,3.059,10.711,4.883l0.227,0.297h0.374c2.704,0.004,10.438,2.281,10.438,12.41c0,4.32-2.492,12.34-3.75,16.105v-8.48
		c0-4.442-1.969-7.176-3.617-8.688c-1.789-1.636-3.578-2.218-3.653-2.242L73.3,19.795l-0.324,0.375
		c-0.051,0.054-5.063,5.738-14.539,5.738c-6.606,0-10.395,3.234-10.395,8.875v4.711c-1.25-3.524-3.75-11.25-3.75-16.777
		c0-4.239,1.77-8.469,4.852-11.61C51.585,8.623,55.976,5.658,63.042,5.658"/>
	<path opacity="0" fill="none" stroke="#000000" d="M63.042,4.908c-12.492,0-19.5,9.195-19.5,17.809c0,7.566,4.5,18.941,4.5,18.941
		h0.75c0,0,0-4.793,0-6.871c0-6.399,5.086-8.129,9.645-8.129c9.968,0,15.105-6,15.105-6s6.75,2.145,6.75,10.215
		c0,2.289,0,10.785,0,10.785h0.75c0,0,4.5-12.461,4.5-18.41c0-10.477-8.035-13.156-11.191-13.156
		C73.554,9.037,70.233,4.908,63.042,4.908z M63.042,5.658c6.105,0,9.332,3.059,10.711,4.883l0.227,0.297h0.374
		c2.704,0.004,10.438,2.281,10.438,12.41c0,4.32-2.492,12.34-3.75,16.105v-8.48c0-4.442-1.969-7.176-3.617-8.688
		c-1.789-1.636-3.578-2.218-3.653-2.242L73.3,19.795l-0.324,0.375c-0.051,0.054-5.063,5.738-14.539,5.738
		c-6.606,0-10.395,3.234-10.395,8.875v4.711c-1.25-3.524-3.75-11.25-3.75-16.777c0-4.239,1.77-8.469,4.852-11.61
		C51.585,8.623,55.976,5.658,63.042,5.658"/>
	<path opacity="0" fill="none" stroke="#000000" d="M74.292,40.533c0,2.5-3.75,2.5-3.75,0S74.292,38.033,74.292,40.533"/>
	<path opacity="0" fill="none" stroke="#000000" d="M58.542,40.533c0,2.5-3.75,2.5-3.75,0S58.542,38.033,58.542,40.533"/>
</g>
<path d="M8.237,58.571"/>
<g>
	<path fill="#F78F8F" d="M23.573,90.382c-8.589,0-15.574-6.985-15.574-15.574s6.985-15.574,15.574-15.574
		s15.574,6.985,15.574,15.574S32.162,90.382,23.573,90.382z"/>
	<path opacity="0" fill="none" stroke="#000000" stroke-width="0.8418" d="M23.573,90.382c-8.589,0-15.574-6.985-15.574-15.574
		s6.985-15.574,15.574-15.574s15.574,6.985,15.574,15.574S32.162,90.382,23.573,90.382z"/>
	<path fill="#C74343" d="M23.573,58.813c-8.835,0-15.995,7.16-15.995,15.995s7.16,15.995,15.995,15.995s15.995-7.16,15.995-15.995
		S32.408,58.813,23.573,58.813z M23.573,59.655c8.357,0,15.153,6.796,15.153,15.153S31.93,89.961,23.573,89.961
		S8.42,83.164,8.42,74.808S15.216,59.655,23.573,59.655"/>
	<path opacity="0" fill="none" stroke="#000000" stroke-width="0.8418" d="M23.573,58.813c-8.835,0-15.995,7.16-15.995,15.995
		s7.16,15.995,15.995,15.995s15.995-7.16,15.995-15.995S32.408,58.813,23.573,58.813z M23.573,59.655
		c8.357,0,15.153,6.796,15.153,15.153S31.93,89.961,23.573,89.961S8.42,83.164,8.42,74.808S15.216,59.655,23.573,59.655"/>
	<path fill="#FFFFFF" d="M26.099,74.808h2.526V66.81c0-0.697-0.566-1.263-1.263-1.263s-1.263,0.566-1.263,1.263V74.808z"/>
	<path opacity="0" fill="none" stroke="#000000" stroke-width="0.8418" d="M26.099,74.808h2.526V66.81
		c0-0.697-0.566-1.263-1.263-1.263s-1.263,0.566-1.263,1.263V74.808z"/>
	<path fill="#FFFFFF" d="M19.364,74.808h2.526v-9.681c0-0.697-0.566-1.263-1.263-1.263s-1.263,0.566-1.263,1.263V74.808z"/>
	<path opacity="0" fill="none" stroke="#000000" stroke-width="0.8418" d="M19.364,74.808h2.526v-9.681
		c0-0.697-0.566-1.263-1.263-1.263s-1.263,0.566-1.263,1.263V74.808z"/>
	<path fill="#FFFFFF" d="M15.997,77.333h2.526v-8.839c0-0.697-0.566-1.263-1.263-1.263s-1.263,0.566-1.263,1.263V77.333z"/>
	<path opacity="0" fill="none" stroke="#000000" stroke-width="0.8418" d="M15.997,77.333h2.526v-8.839
		c0-0.697-0.566-1.263-1.263-1.263s-1.263,0.566-1.263,1.263V77.333z"/>
	<path fill="#FFFFFF" d="M22.731,74.808h2.526V64.285c0-0.697-0.566-1.263-1.263-1.263s-1.263,0.566-1.263,1.263V74.808z"/>
	<path opacity="0" fill="none" stroke="#000000" stroke-width="0.8418" d="M22.731,74.808h2.526V64.285
		c0-0.697-0.566-1.263-1.263-1.263s-1.263,0.566-1.263,1.263V74.808z"/>
	<path fill="#FFFFFF" d="M24.88,81.179l2.424,2.424l5.867-5.867c0.67-0.67,0.67-1.753,0-2.424c-0.671-0.67-1.754-0.67-2.424,0
		L24.88,81.179z"/>
	<path opacity="0" fill="none" stroke="#000000" stroke-width="0.8418" d="M24.88,81.179l2.424,2.424l5.867-5.867
		c0.67-0.67,0.67-1.753,0-2.424c-0.671-0.67-1.754-0.67-2.424,0L24.88,81.179z"/>
	<path fill="#FFFFFF" d="M24.143,84.91h-3.938c-2.323,0-4.209-1.886-4.209-4.209v-7.577h12.628v7.305
		C28.624,82.902,26.616,84.91,24.143,84.91z"/>
	<path opacity="0" fill="none" stroke="#000000" stroke-width="0.8418" d="M24.143,84.91h-3.938c-2.323,0-4.209-1.886-4.209-4.209
		v-7.577h12.628v7.305C28.624,82.902,26.616,84.91,24.143,84.91z"/>
</g>
<path d="M46.115,2.751"/>
</svg>
