<?xml version="1.0" encoding="utf-8"?>
<!-- Generator: Adobe Illustrator 17.0.0, SVG Export Plug-In . SVG Version: 6.00 Build 0)  -->
<!DOCTYPE svg PUBLIC "-//W3C//DTD SVG 1.1//EN" "http://www.w3.org/Graphics/SVG/1.1/DTD/svg11.dtd">
<svg version="1.1" id="图层_1" xmlns="http://www.w3.org/2000/svg" xmlns:xlink="http://www.w3.org/1999/xlink" x="0px" y="0px"
	 width="96px" height="96px" viewBox="0 0 96 96" enable-background="new 0 0 96 96" xml:space="preserve">
<g>
	<path fill="#FFFFFF" stroke="#898989" stroke-miterlimit="10" d="M72.661,29.5c-0.91,0-1.623-0.067-2.317,0.627
		c-0.695,0.695-0.844,1.19-0.844,2.101v34.009c0,1.135-0.631,2.684-1.497,3.55c-0.866,0.866-2.199,1.713-3.334,1.713H29.801
		c-1.202,0-2.206-0.873-3.124-1.79S25.5,67.176,25.5,65.973V32.331c0-0.937-0.555-1.459-1.27-2.173
		c-0.715-0.715-1.849-0.657-2.786-0.657h-4.769c-1.17,0-2.142,0.032-3.034,0.924c-0.893,0.893-1.141,1.648-1.141,2.818V87.5h70
		V33.244c0-1.17-0.645-1.926-1.538-2.819c-0.893-0.893-2.261-0.925-3.432-0.925H72.661z"/>
	<path fill="#FFFFFF" stroke="#898989" stroke-miterlimit="10" d="M69.5,71.22c0,0.883-0.535,2.181-1.209,2.855
		c-0.674,0.674-1.755,1.425-2.638,1.425h-37.26c-0.842,0-1.486-0.736-2.128-1.378c-0.642-0.642-0.765-1.899-0.765-2.741V33.5h44
		V71.22z"/>
</g>
<path d="M7.528,58.175"/>
<path d="M45.406,2.355"/>
</svg>
