<?xml version="1.0" encoding="utf-8"?>
<!-- Generator: Adobe Illustrator 17.0.0, SVG Export Plug-In . SVG Version: 6.00 Build 0)  -->
<!DOCTYPE svg PUBLIC "-//W3C//DTD SVG 1.1//EN" "http://www.w3.org/Graphics/SVG/1.1/DTD/svg11.dtd">
<svg version="1.1" id="图层_1" xmlns="http://www.w3.org/2000/svg" xmlns:xlink="http://www.w3.org/1999/xlink" x="0px" y="0px"
	 width="96px" height="96px" viewBox="0 0 96 96" enable-background="new 0 0 96 96" xml:space="preserve">
<path fill="#FF7BAC" stroke="#898989" stroke-miterlimit="10" d="M72.152,29.5c-0.91,0-1.368-0.067-2.063,0.627
	c-0.695,0.695-0.589,1.19-0.589,2.101v34.009c0,1.135-0.886,2.684-1.751,3.55c-0.866,0.866-2.453,1.713-3.588,1.713H29.292
	c-1.202,0-1.952-0.873-2.869-1.79c-0.917-0.917-0.923-2.534-0.923-3.736V32.331c0-0.937-0.81-1.459-1.525-2.173
	c-0.715-0.715-2.104-0.657-3.041-0.657h-4.769c-1.17,0-1.887,0.032-2.78,0.924c-0.893,0.893-0.886,1.648-0.886,2.818V87.5h70V33.244
	c0-1.17-0.899-1.926-1.792-2.819c-0.893-0.893-2.516-0.925-3.686-0.925H72.152z"/>
<path fill="#FFABE6" stroke="#898989" stroke-miterlimit="10" d="M69.5,71.22c0,0.883-0.79,2.181-1.463,2.855
	c-0.674,0.674-2.01,1.425-2.893,1.425h-37.26c-0.842,0-1.231-0.736-1.873-1.378c-0.642-0.642-0.511-1.899-0.511-2.741V33.5h44V71.22
	z"/>
<path d="M7.019,58.175"/>
<path d="M44.897,2.355"/>
</svg>
