<?xml version="1.0" encoding="utf-8"?>
<!-- Generator: Adobe Illustrator 17.0.0, SVG Export Plug-In . SVG Version: 6.00 Build 0)  -->
<!DOCTYPE svg PUBLIC "-//W3C//DTD SVG 1.1//EN" "http://www.w3.org/Graphics/SVG/1.1/DTD/svg11.dtd">
<svg version="1.1" id="图层_1" xmlns="http://www.w3.org/2000/svg" xmlns:xlink="http://www.w3.org/1999/xlink" x="0px" y="0px"
	 width="96px" height="96px" viewBox="0 0 96 96" enable-background="new 0 0 96 96" xml:space="preserve">
<path fill="#BAE3F9" stroke="#898989" stroke-miterlimit="10" d="M72.968,29.5c-0.91,0-1.776,0.244-2.471,0.939
	S69.5,31.941,69.5,32.851V66.86c0,1.135-0.477,2.373-1.343,3.238s-2.045,1.402-3.18,1.402H30.109c-1.202,0-2.36-0.562-3.277-1.479
	S25.5,67.799,25.5,66.597V32.954c0-0.937-0.402-1.77-1.116-2.485S22.688,29.5,21.751,29.5h-4.769c-1.17,0-2.295,0.343-3.188,1.236
	S12.5,32.695,12.5,33.865V87.5h70V33.867c0-1.17-0.491-2.238-1.384-3.131c-0.893-0.893-2.108-1.237-3.278-1.237H72.968z"/>
<path fill="#DFF2FC" stroke="#898989" stroke-miterlimit="10" d="M69.5,71.843c0,0.883-0.381,1.869-1.055,2.543
	S66.844,75.5,65.961,75.5h-37.26c-0.842,0-1.639-0.424-2.282-1.066c-0.642-0.642-0.919-1.587-0.919-2.429V33.5h44V71.843z"/>
<path fill="#FFFFFF" stroke="#898989" stroke-miterlimit="10" d="M82.5,86.803L64.511,71.5H30.109c-1.202,0-2.36-0.561-3.277-1.479
	c-0.917-0.917-1.332-2.222-1.332-3.424V37.419l-9.328-8.043c-0.871,0.165-1.681,0.583-2.355,1.257
	c-0.893,0.893-1.317,2.062-1.317,3.232V87.5h70V86.803z"/>
<path fill="#FFFFFF" stroke="#898989" stroke-miterlimit="10" d="M28.701,75.5h37.26c0.791,0,1.618-0.389,2.258-0.929L25.5,37.419
	v34.585c0,0.842,0.277,1.787,0.919,2.429C27.062,75.076,27.859,75.5,28.701,75.5z"/>
<path d="M7.836,58.798"/>
<path d="M45.713,2.978"/>
</svg>
