<?xml version="1.0" encoding="utf-8"?>
<!-- Generator: Adobe Illustrator 17.0.0, SVG Export Plug-In . SVG Version: 6.00 Build 0)  -->
<!DOCTYPE svg PUBLIC "-//W3C//DTD SVG 1.1//EN" "http://www.w3.org/Graphics/SVG/1.1/DTD/svg11.dtd">
<svg version="1.1" id="图层_1" xmlns="http://www.w3.org/2000/svg" xmlns:xlink="http://www.w3.org/1999/xlink" x="0px" y="0px"
	 width="96px" height="96px" viewBox="0 0 96 96" enable-background="new 0 0 96 96" xml:space="preserve">
<g>
	<path fill="#BAE3F9" stroke="#898989" stroke-miterlimit="10" d="M72.996,29.5c-0.91,0-1.79,0.199-2.485,0.894
		c-0.695,0.695-1.011,1.457-1.011,2.367V66.77c0,1.135-0.463,2.418-1.329,3.283S66.14,71.5,65.005,71.5H30.137
		c-1.202,0-2.374-0.607-3.291-1.524c-0.917-0.917-1.345-2.267-1.345-3.47V32.864c0-0.937-0.388-1.725-1.102-2.44
		c-0.715-0.715-1.682-0.924-2.618-0.924H17.01c-1.17,0-2.309,0.298-3.202,1.191S12.5,32.605,12.5,33.775V87.5h70V33.777
		c0-1.17-0.477-2.193-1.37-3.086c-0.893-0.893-2.094-1.192-3.264-1.192H72.996z"/>
	<path fill="#DFF2FC" stroke="#898989" stroke-miterlimit="10" d="M69.5,71.753c0,0.883-0.367,1.914-1.041,2.588
		s-1.587,1.159-2.47,1.159h-37.26c-0.842,0-1.653-0.469-2.296-1.111c-0.642-0.642-0.933-1.632-0.933-2.474V33.5h44V71.753z"/>
</g>
<path d="M7.924,58.571"/>
<g>
	<path fill="#F78F8F" d="M23.26,90.382c-8.589,0-15.574-6.985-15.574-15.574s6.985-15.574,15.574-15.574s15.574,6.985,15.574,15.574
		S31.849,90.382,23.26,90.382z"/>
	<path opacity="0" fill="none" stroke="#000000" stroke-width="0.8418" d="M23.26,90.382c-8.589,0-15.574-6.985-15.574-15.574
		s6.985-15.574,15.574-15.574s15.574,6.985,15.574,15.574S31.849,90.382,23.26,90.382z"/>
	<path fill="#C74343" d="M23.26,58.813c-8.835,0-15.995,7.16-15.995,15.995s7.16,15.995,15.995,15.995s15.995-7.16,15.995-15.995
		S32.095,58.813,23.26,58.813z M23.26,59.655c8.357,0,15.153,6.796,15.153,15.153S31.617,89.961,23.26,89.961
		S8.107,83.164,8.107,74.808S14.903,59.655,23.26,59.655"/>
	<path opacity="0" fill="none" stroke="#000000" stroke-width="0.8418" d="M23.26,58.813c-8.835,0-15.995,7.16-15.995,15.995
		s7.16,15.995,15.995,15.995s15.995-7.16,15.995-15.995S32.095,58.813,23.26,58.813z M23.26,59.655
		c8.357,0,15.153,6.796,15.153,15.153S31.617,89.961,23.26,89.961S8.107,83.164,8.107,74.808S14.903,59.655,23.26,59.655"/>
	<path fill="#FFFFFF" d="M25.786,74.808h2.526V66.81c0-0.697-0.566-1.263-1.263-1.263s-1.263,0.566-1.263,1.263V74.808z"/>
	<path opacity="0" fill="none" stroke="#000000" stroke-width="0.8418" d="M25.786,74.808h2.526V66.81
		c0-0.697-0.566-1.263-1.263-1.263s-1.263,0.566-1.263,1.263V74.808z"/>
	<path fill="#FFFFFF" d="M19.051,74.808h2.526v-9.681c0-0.697-0.566-1.263-1.263-1.263s-1.263,0.566-1.263,1.263V74.808z"/>
	<path opacity="0" fill="none" stroke="#000000" stroke-width="0.8418" d="M19.051,74.808h2.526v-9.681
		c0-0.697-0.566-1.263-1.263-1.263s-1.263,0.566-1.263,1.263V74.808z"/>
	<path fill="#FFFFFF" d="M15.683,77.333h2.526v-8.839c0-0.697-0.566-1.263-1.263-1.263s-1.263,0.566-1.263,1.263V77.333z"/>
	<path opacity="0" fill="none" stroke="#000000" stroke-width="0.8418" d="M15.683,77.333h2.526v-8.839
		c0-0.697-0.566-1.263-1.263-1.263s-1.263,0.566-1.263,1.263V77.333z"/>
	<path fill="#FFFFFF" d="M22.418,74.808h2.526V64.285c0-0.697-0.566-1.263-1.263-1.263s-1.263,0.566-1.263,1.263V74.808z"/>
	<path opacity="0" fill="none" stroke="#000000" stroke-width="0.8418" d="M22.418,74.808h2.526V64.285
		c0-0.697-0.566-1.263-1.263-1.263s-1.263,0.566-1.263,1.263V74.808z"/>
	<path fill="#FFFFFF" d="M24.567,81.179l2.424,2.424l5.867-5.867c0.67-0.67,0.67-1.753,0-2.424c-0.671-0.67-1.754-0.67-2.424,0
		L24.567,81.179z"/>
	<path opacity="0" fill="none" stroke="#000000" stroke-width="0.8418" d="M24.567,81.179l2.424,2.424l5.867-5.867
		c0.67-0.67,0.67-1.753,0-2.424c-0.671-0.67-1.754-0.67-2.424,0L24.567,81.179z"/>
	<path fill="#FFFFFF" d="M23.83,84.91h-3.938c-2.323,0-4.209-1.886-4.209-4.209v-7.577h12.628v7.305
		C28.311,82.902,26.303,84.91,23.83,84.91z"/>
	<path opacity="0" fill="none" stroke="#000000" stroke-width="0.8418" d="M23.83,84.91h-3.938c-2.323,0-4.209-1.886-4.209-4.209
		v-7.577h12.628v7.305C28.311,82.902,26.303,84.91,23.83,84.91z"/>
</g>
<path d="M45.802,2.751"/>
<g>
	<defs>
		<rect id="SVGID_5_" x="34.229" y="3.408" width="60" height="60"/>
	</defs>
	<clipPath id="SVGID_2_">
		<use xlink:href="#SVGID_5_"  overflow="visible"/>
	</clipPath>
	<path clip-path="url(#SVGID_2_)" d="M34.229,3.408"/>
	<path clip-path="url(#SVGID_2_)" fill="#FFEEA3" d="M62.729,61.533c-1.691,0-3.277-0.75-4.352-2.059l-0.07-0.086l-0.109-0.031
		c-6.485-2-10.844-7.906-10.844-14.699v-20.93c0-3.933,3.199-7.132,7.133-7.132h16.488c3.934,0,7.133,3.199,7.133,7.132v20.93
		c0,6.793-4.359,12.699-10.844,14.695l-0.109,0.032l-0.074,0.089C66.006,60.783,64.42,61.533,62.729,61.533z"/>
	<path opacity="0" clip-path="url(#SVGID_2_)" fill="none" stroke="#000000" stroke-width="0.75" d="M62.729,61.533
		c-1.691,0-3.277-0.75-4.352-2.059l-0.07-0.086l-0.109-0.031c-6.485-2-10.844-7.906-10.844-14.699v-20.93
		c0-3.933,3.199-7.132,7.133-7.132h16.488c3.934,0,7.133,3.199,7.133,7.132v20.93c0,6.793-4.359,12.699-10.844,14.695l-0.109,0.032
		l-0.074,0.089C66.006,60.783,64.42,61.533,62.729,61.533z"/>
	<path clip-path="url(#SVGID_2_)" fill="#BA9B48" d="M70.971,16.22H54.487c-4.149,0-7.508,3.36-7.508,7.504v20.934
		c0,7.082,4.676,13.074,11.109,15.055c1.102,1.34,2.77,2.195,4.641,2.195s3.539-0.855,4.641-2.199
		c6.433-1.981,11.109-7.969,11.109-15.051V23.724C78.479,19.58,75.12,16.22,70.971,16.22z M70.971,16.97
		c3.727,0,6.758,3.032,6.758,6.758v20.93c0,6.625-4.25,12.387-10.582,14.336l-0.215,0.066l-0.144,0.176
		c-1,1.223-2.481,1.922-4.059,1.922s-3.059-0.703-4.059-1.922l-0.144-0.176l-0.215-0.066c-6.332-1.949-10.582-7.711-10.582-14.336
		V23.724c0-3.726,3.031-6.757,6.758-6.757h16.484"/>
	<path opacity="0" clip-path="url(#SVGID_2_)" fill="none" stroke="#000000" d="M70.971,16.22H54.487
		c-4.149,0-7.508,3.36-7.508,7.504v20.934c0,7.082,4.676,13.074,11.109,15.055c1.102,1.34,2.77,2.195,4.641,2.195
		s3.539-0.855,4.641-2.199c6.433-1.981,11.109-7.969,11.109-15.051V23.724C78.479,19.58,75.12,16.22,70.971,16.22z M70.971,16.97
		c3.727,0,6.758,3.032,6.758,6.758v20.93c0,6.625-4.25,12.387-10.582,14.336l-0.215,0.066l-0.144,0.176
		c-1,1.223-2.481,1.922-4.059,1.922s-3.059-0.703-4.059-1.922l-0.144-0.176l-0.215-0.066c-6.332-1.949-10.582-7.711-10.582-14.336
		V23.724c0-3.726,3.031-6.757,6.758-6.757h16.484"/>
	<path clip-path="url(#SVGID_2_)" fill="#FFC49C" stroke="#898989" stroke-miterlimit="10" d="M80.729,60.033
		c-4.727,0-9.035-1.352-10.621-1.918c1.933-1.465,7.996-6.684,7.996-14.531V33.228c0-5.449-5.934-8.996-6.184-9.144l-0.336-0.196
		l-0.183,0.344c-0.039,0.074-4.117,7.395-14.348,8.809c-4.672,0.64-9.699,3.945-9.699,9.672v0.871
		c0,7.957,6.664,13.363,8.859,14.929c-1.761,0.465-6.187,1.52-9.984,1.52c-6.348,0-9.336-3.242-10.027-4.113
		c0.937-1.176,4.992-6.477,4.992-10.297c0-1.973-0.461-4.274-0.949-6.707c-0.563-2.793-1.141-5.68-1.141-8.508
		c0-15.727,11.223-25.125,22.07-25.125c8.203,0,11.696,5.758,11.731,5.816l0.109,0.184h0.215c7.062,0,14.625,7.082,14.625,17.625
		c0,3.363-0.734,6.453-1.441,9.441c-0.61,2.571-1.184,4.997-1.184,7.274c0,4.828,5.312,9.137,6.871,10.297
		C90.76,56.912,86.116,60.033,80.729,60.033z"/>
	<path opacity="0" clip-path="url(#SVGID_2_)" fill="none" stroke="#000000" stroke-width="0.75" d="M80.729,60.033
		c-4.727,0-9.035-1.352-10.621-1.918c1.933-1.465,7.996-6.684,7.996-14.531V33.228c0-5.449-5.934-8.996-6.184-9.144l-0.336-0.196
		l-0.183,0.344c-0.039,0.074-4.117,7.395-14.348,8.809c-4.672,0.64-9.699,3.945-9.699,9.672v0.871
		c0,7.957,6.664,13.363,8.859,14.929c-1.761,0.465-6.187,1.52-9.984,1.52c-6.348,0-9.336-3.242-10.027-4.113
		c0.937-1.176,4.992-6.477,4.992-10.297c0-1.973-0.461-4.274-0.949-6.707c-0.563-2.793-1.141-5.68-1.141-8.508
		c0-15.727,11.223-25.125,22.07-25.125c8.203,0,11.696,5.758,11.731,5.816l0.109,0.184h0.215c7.062,0,14.625,7.082,14.625,17.625
		c0,3.363-0.734,6.453-1.441,9.441c-0.61,2.571-1.184,4.997-1.184,7.274c0,4.828,5.312,9.137,6.871,10.297
		C90.76,56.912,86.116,60.033,80.729,60.033z"/>
	<path clip-path="url(#SVGID_2_)" fill="#A16A4A" d="M61.174,4.908c-11.148,0-22.445,9.707-22.445,25.5
		c0,5.379,2.09,11.07,2.09,15.215c0,4.14-5.09,10.285-5.09,10.285s2.887,4.5,10.5,4.5c4.957,0,10.867-1.746,10.867-1.746
		s-9.367-5.703-9.367-15.074c0-0.664,0-0.785,0-0.785v0.035c0,0,0-0.028,0-0.125c0-5.516,4.863-8.68,9.375-9.305
		c10.559-1.457,14.625-9,14.625-9s6,3.523,6,8.82c0,2.289,0,6.594,0,10.356c0,9.195-8.41,14.636-8.41,14.636
		s5.328,2.188,11.41,2.188c6.59,0,12-4.5,12-4.5s-7.125-4.883-7.125-10.285c0-4.801,2.625-10.352,2.625-16.715
		c0-10.793-7.91-18-15-18C73.229,10.908,69.709,4.908,61.174,4.908z M61.174,5.658c3.344,0,6.274,0.941,8.715,2.805
		c1.828,1.394,2.684,2.812,2.692,2.828l0.218,0.371h0.43c3.336,0,6.926,1.758,9.605,4.707c2.997,3.293,4.645,7.746,4.645,12.539
		c0,3.316-0.727,6.387-1.43,9.355c-0.613,2.594-1.195,5.04-1.195,7.36c0,4.633,4.668,8.762,6.617,10.285
		c-1.68,1.18-5.906,3.75-10.742,3.75c-4.117,0-7.918-1.043-9.832-1.668c2.391-1.918,7.582-6.937,7.582-14.402v-10.36
		c0-5.66-6.109-9.316-6.371-9.468l-0.668-0.391l-0.371,0.68c-0.008,0.019-1.012,1.832-3.242,3.793
		c-2.051,1.8-5.59,4.097-10.828,4.82c-4.825,0.668-10.02,4.098-10.02,10.051v0.09v0.785c0,7.547,5.672,12.734,8.359,14.765
		c-2.058,0.508-5.824,1.305-9.109,1.305c-5.797,0-8.648-2.684-9.551-3.738c1.211-1.551,4.887-6.571,4.887-10.297
		c0-2.012-0.465-4.328-0.957-6.781c-0.555-2.774-1.129-5.645-1.129-8.434C39.479,14.916,50.51,5.658,61.174,5.658"/>
	<path opacity="0" clip-path="url(#SVGID_2_)" fill="none" stroke="#000000" stroke-width="0.75" d="M61.174,4.908
		c-11.148,0-22.445,9.707-22.445,25.5c0,5.379,2.09,11.07,2.09,15.215c0,4.14-5.09,10.285-5.09,10.285s2.887,4.5,10.5,4.5
		c4.957,0,10.867-1.746,10.867-1.746s-9.367-5.703-9.367-15.074c0-0.664,0-0.785,0-0.785v0.035c0,0,0-0.028,0-0.125
		c0-5.516,4.863-8.68,9.375-9.305c10.559-1.457,14.625-9,14.625-9s6,3.523,6,8.82c0,2.289,0,6.594,0,10.356
		c0,9.195-8.41,14.636-8.41,14.636s5.328,2.188,11.41,2.188c6.59,0,12-4.5,12-4.5s-7.125-4.883-7.125-10.285
		c0-4.801,2.625-10.352,2.625-16.715c0-10.793-7.91-18-15-18C73.229,10.908,69.709,4.908,61.174,4.908z M61.174,5.658
		c3.344,0,6.274,0.941,8.715,2.805c1.828,1.394,2.684,2.812,2.692,2.828l0.218,0.371h0.43c3.336,0,6.926,1.758,9.605,4.707
		c2.997,3.293,4.645,7.746,4.645,12.539c0,3.316-0.727,6.387-1.43,9.355c-0.613,2.594-1.195,5.04-1.195,7.36
		c0,4.633,4.668,8.762,6.617,10.285c-1.68,1.18-5.906,3.75-10.742,3.75c-4.117,0-7.918-1.043-9.832-1.668
		c2.391-1.918,7.582-6.937,7.582-14.402v-10.36c0-5.66-6.109-9.316-6.371-9.468l-0.668-0.391l-0.371,0.68
		c-0.008,0.019-1.012,1.832-3.242,3.793c-2.051,1.8-5.59,4.097-10.828,4.82c-4.825,0.668-10.02,4.098-10.02,10.051v0.09v0.785
		c0,7.547,5.672,12.734,8.359,14.765c-2.058,0.508-5.824,1.305-9.109,1.305c-5.797,0-8.648-2.684-9.551-3.738
		c1.211-1.551,4.887-6.571,4.887-10.297c0-2.012-0.465-4.328-0.957-6.781c-0.555-2.774-1.129-5.645-1.129-8.434
		C39.479,14.916,50.51,5.658,61.174,5.658"/>
	<path opacity="0" clip-path="url(#SVGID_2_)" fill="none" stroke="#000000" stroke-width="0.75" d="M72.479,41.283
		c0,2.5-3.75,2.5-3.75,0S72.479,38.783,72.479,41.283"/>
	<path opacity="0" clip-path="url(#SVGID_2_)" fill="none" stroke="#000000" stroke-width="0.75" d="M56.729,41.283
		c0,2.5-3.75,2.5-3.75,0S56.729,38.783,56.729,41.283"/>
</g>
</svg>
