<?xml version="1.0" encoding="utf-8"?>
<!-- Generator: Adobe Illustrator 17.0.0, SVG Export Plug-In . SVG Version: 6.00 Build 0)  -->
<!DOCTYPE svg PUBLIC "-//W3C//DTD SVG 1.1//EN" "http://www.w3.org/Graphics/SVG/1.1/DTD/svg11.dtd">
<svg version="1.1" id="图层_1" xmlns="http://www.w3.org/2000/svg" xmlns:xlink="http://www.w3.org/1999/xlink" x="0px" y="0px"
	 width="72px" height="60px" viewBox="0 0 72 60" enable-background="new 0 0 72 60" xml:space="preserve">
<g>
	<path fill="#BAE3F9" stroke="#898989" stroke-miterlimit="10" d="M60.968,1.5c-0.91,0-1.776,0.025-2.471,0.72
		S57.5,3.503,57.5,4.413v34.009c0,1.135-0.477,2.592-1.343,3.458c-0.866,0.866-2.045,1.621-3.18,1.621H18.109
		c-1.202,0-2.36-0.781-3.277-1.698S13.5,39.361,13.5,38.158V4.516c0-0.937-0.402-1.551-1.116-2.266S10.688,1.5,9.751,1.5H4.982
		c-1.17,0-2.295,0.124-3.188,1.017S0.5,4.257,0.5,5.427V59.5h70V5.429c0-1.17-0.491-2.019-1.384-2.912S67.008,1.5,65.838,1.5H60.968
		z"/>
	<path fill="#DFF2FC" stroke="#898989" stroke-miterlimit="10" d="M57.5,43.405c0,0.883-0.381,2.088-1.055,2.762
		c-0.674,0.674-1.601,1.333-2.484,1.333h-37.26c-0.842,0-1.639-0.643-2.282-1.285c-0.642-0.642-0.919-1.806-0.919-2.648V5.5h44
		V43.405z"/>
	<path fill="#FFFFFF" stroke="#898989" stroke-miterlimit="10" d="M70.5,58.365L52.511,43.5H18.109c-1.202,0-2.36-0.78-3.277-1.698
		c-0.917-0.917-1.332-2.441-1.332-3.644V8.981L4.172,0.938C3.301,1.103,2.491,1.521,1.817,2.195C0.924,3.087,0.5,4.257,0.5,5.427
		V59.5h70V58.365z"/>
	<path fill="#FFFFFF" stroke="#898989" stroke-miterlimit="10" d="M16.701,47.5h37.26c0.791,0,1.618-0.608,2.258-1.148L13.5,8.981
		v34.585c0,0.842,0.277,2.006,0.919,2.648C15.062,46.857,15.859,47.5,16.701,47.5z"/>
</g>
</svg>
