<?xml version="1.0" encoding="utf-8"?>
<!-- Generator: Adobe Illustrator 17.0.0, SVG Export Plug-In . SVG Version: 6.00 Build 0)  -->
<!DOCTYPE svg PUBLIC "-//W3C//DTD SVG 1.1//EN" "http://www.w3.org/Graphics/SVG/1.1/DTD/svg11.dtd">
<svg version="1.1" id="图层_1" xmlns="http://www.w3.org/2000/svg" xmlns:xlink="http://www.w3.org/1999/xlink" x="0px" y="0px"
	 width="72px" height="60px" viewBox="0 0 72 60" enable-background="new 0 0 72 60" xml:space="preserve">
<g>
	<path fill="#BAE3F9" stroke="#898989" stroke-miterlimit="10" d="M60.652,1.5c-0.91,0-1.618-0.317-2.313,0.378
		S57.5,2.819,57.5,3.729v34.009c0,1.135-0.636,2.934-1.501,3.8S53.795,43.5,52.66,43.5H17.792c-1.202,0-2.202-1.123-3.119-2.04
		S13.5,38.676,13.5,37.474V3.832c0-0.937-0.56-1.209-1.275-1.924S10.371,1.5,9.435,1.5H4.666c-1.17,0-2.137-0.218-3.03,0.675
		S0.5,3.573,0.5,4.743V59.5h70V4.745c0-1.17-0.649-1.677-1.542-2.57C68.065,1.282,66.692,1.5,65.521,1.5H60.652z"/>
	<path fill="#DFF2FC" stroke="#898989" stroke-miterlimit="10" d="M57.5,42.721c0,0.883-0.54,2.43-1.213,3.104
		c-0.674,0.674-1.76,1.675-2.643,1.675h-37.26c-0.842,0-1.481-0.985-2.123-1.628c-0.642-0.642-0.761-2.148-0.761-2.99V5.5h44V42.721
		z"/>
</g>
</svg>
