<?xml version="1.0" encoding="utf-8"?>
<!-- Generator: Adobe Illustrator 17.0.0, SVG Export Plug-In . SVG Version: 6.00 Build 0)  -->
<!DOCTYPE svg PUBLIC "-//W3C//DTD SVG 1.1//EN" "http://www.w3.org/Graphics/SVG/1.1/DTD/svg11.dtd">
<svg version="1.1" id="图层_1" xmlns="http://www.w3.org/2000/svg" xmlns:xlink="http://www.w3.org/1999/xlink" x="0px" y="0px"
	 width="72px" height="60px" viewBox="0 0 72 60" enable-background="new 0 0 72 60" xml:space="preserve">
<g>
	<path fill="#FFFFFF" stroke="#898989" stroke-miterlimit="10" d="M61.661,1.5c-0.91,0-1.623-0.317-2.317,0.378
		S58.5,2.819,58.5,3.729v34.009c0,1.135-0.631,2.934-1.497,3.8S54.804,43.5,53.67,43.5H18.801c-1.202,0-2.206-1.123-3.124-2.04
		c-0.917-0.917-1.178-2.784-1.178-3.986V3.832c0-0.937-0.555-1.209-1.27-1.924C12.515,1.193,11.381,1.5,10.444,1.5H5.675
		c-1.17,0-2.142-0.218-3.034,0.675S1.5,3.573,1.5,4.743V59.5h70V4.745c0-1.17-0.645-1.677-1.538-2.57
		C69.069,1.282,67.701,1.5,66.531,1.5H61.661z"/>
	<path fill="#FFFFFF" stroke="#898989" stroke-miterlimit="10" d="M58.5,42.721c0,0.883-0.535,2.43-1.209,3.104
		c-0.674,0.674-1.755,1.675-2.638,1.675h-37.26c-0.842,0-1.486-0.985-2.128-1.628c-0.642-0.642-0.765-2.148-0.765-2.99V5.5h44
		V42.721z"/>
</g>
</svg>
