<?xml version="1.0" encoding="utf-8"?>
<!-- Generator: Adobe Illustrator 17.0.0, SVG Export Plug-In . SVG Version: 6.00 Build 0)  -->
<!DOCTYPE svg PUBLIC "-//W3C//DTD SVG 1.1//EN" "http://www.w3.org/Graphics/SVG/1.1/DTD/svg11.dtd">
<svg version="1.1" id="图层_1" xmlns="http://www.w3.org/2000/svg" xmlns:xlink="http://www.w3.org/1999/xlink" x="0px" y="0px"
	 width="72px" height="60px" viewBox="0 0 72 60" enable-background="new 0 0 72 60" xml:space="preserve">
<g>
	<path fill="#FF7BAC" stroke="#898989" stroke-miterlimit="10" d="M60.754,1.532c-0.91,0-1.54-0.565-2.234,0.13
		s-0.761,0.693-0.761,1.603v34.009c0,1.135-0.714,3.182-1.58,4.048s-2.282,2.211-3.417,2.211H17.894
		c-1.202,0-2.123-1.371-3.041-2.288c-0.917-0.917-1.095-3.032-1.095-4.234V3.368c0-0.937-0.638-0.961-1.353-1.676
		c-0.715-0.715-1.932-0.16-2.869-0.16H4.768c-1.17,0-2.059-0.466-2.951,0.427s-1.058,1.15-1.058,2.32v55.253h70V4.281
		c0-1.17-0.728-1.429-1.621-2.322s-2.345-0.427-3.515-0.427H60.754z"/>
	<path fill="#FFABE6" stroke="#898989" stroke-miterlimit="10" d="M57.759,42.257c0,0.883-0.618,2.678-1.292,3.352
		c-0.674,0.674-1.838,1.923-2.721,1.923h-37.26c-0.842,0-1.403-1.233-2.045-1.876s-0.682-2.396-0.682-3.238V5.532h44V42.257z"/>
</g>
</svg>
